<svg width="38" height="37" viewBox="0 0 38 37" fill="none" xmlns="http://www.w3.org/2000/svg">
<path d="M29.9067 29.4993C31.4263 27.6894 32.4982 25.5472 33.0358 23.246C33.5734 20.9448 33.5616 18.5493 33.0012 16.2535C32.4408 13.9578 31.3477 11.8262 29.8103 10.0315C28.2729 8.2368 26.3345 6.82935 24.152 5.92312C21.9695 5.01689 19.6043 4.63736 17.2478 4.81525C14.8914 4.99315 12.6099 5.72347 10.5882 6.94709C8.56648 8.17071 6.86134 9.85322 5.61082 11.8584C4.3603 13.8636 3.59957 16.1351 3.39021 18.489L9.84065 19.0627C9.95992 17.7217 10.3933 16.4276 11.1057 15.2853C11.8181 14.1429 12.7896 13.1844 13.9413 12.4873C15.0931 11.7902 16.3928 11.3741 17.7353 11.2728C19.0778 11.1714 20.4253 11.3877 21.6686 11.9039C22.912 12.4202 24.0163 13.222 24.8922 14.2445C25.768 15.2669 26.3908 16.4813 26.71 17.7892C27.0292 19.0971 27.036 20.4618 26.7297 21.7727C26.4235 23.0837 25.8128 24.3042 24.9471 25.3353L29.9067 29.4993Z" fill="#EBEBFF"/>
</svg>
